<?xml version="1.0" encoding="UTF-8" standalone="no"?>
<svg
   version="1.0"
   width="595.27563pt"
   height="841.88971pt"
   viewBox="0 0 595.27564 841.88971"
   preserveAspectRatio="xMidYMid"
   id="svg2"
   inkscape:version="1.3.2 (091e20e, 2023-11-25, custom)"
   inkscape:export-filename="logo_ataraxialab_plein.webp"
   inkscape:export-xdpi="96"
   inkscape:export-ydpi="96"
   sodipodi:docname="logo_plein_1.svg"
   xmlns:inkscape="http://www.inkscape.org/namespaces/inkscape"
   xmlns:sodipodi="http://sodipodi.sourceforge.net/DTD/sodipodi-0.dtd"
   xmlns="http://www.w3.org/2000/svg"
   xmlns:svg="http://www.w3.org/2000/svg">
   <style>
  @media (prefers-color-scheme: dark) {
    path { fill: #ffffff; }
  }
</style>
  <defs
     id="defs2" />
  <sodipodi:namedview
     id="namedview2"
     pagecolor="#ffffff"
     bordercolor="#999999"
     borderopacity="1"
     inkscape:showpageshadow="2"
     inkscape:pageopacity="0"
     inkscape:pagecheckerboard="0"
     inkscape:deskcolor="#d1d1d1"
     inkscape:document-units="pt"
     showgrid="true"
     inkscape:zoom="0.35355339"
     inkscape:cx="-8.4852813"
     inkscape:cy="301.22749"
     inkscape:window-width="1920"
     inkscape:window-height="1009"
     inkscape:window-x="-8"
     inkscape:window-y="-8"
     inkscape:window-maximized="1"
     inkscape:current-layer="svg2">
    <inkscape:grid
       id="grid2"
       units="pt"
       originx="-11.358197"
       originy="-36.497704"
       spacingx="1"
       spacingy="1"
       empcolor="#0099e5"
       empopacity="0.30196078"
       color="#0099e5"
       opacity="0.14901961"
       empspacing="5"
       enabled="true"
       visible="true" />
  </sodipodi:namedview>
  <metadata
     id="metadata1">
Created by potrace 1.16, written by Peter Selinger 2001-2019
</metadata>
  <g
     id="g6"
     transform="matrix(0.08717317,0,0,-0.09815123,-31.386673,803.888)"
     style="fill:#000000;stroke:none;stroke-width:1.08109">
    <path
       id="path2"
       d="M 3348.5,7039.875 914.46875,340.51563 1135.1563,340 3453.5524,6689.9894 Z m 101.4032,1150.4248 -189.917,-0.2784 L 360.04969,340.11421 c 0.0423,-0.0988 205.26855,-0.13184 205.26855,-0.13184 L 3350.0595,7790.1191 5122.535,3220.1728 4800.1669,3219.1474 3649.9862,6139.9873 1499.2294,339.30855 l 249.5508,0.80566 566.4513,1599.45919 2741.5614,0.4871 643.2568,-1608.25195 190.1221,-0.11719 -590.4493,1608.50094 348.9258,-0.3662 598.6817,-1602.52439 232.6757,5.69824 -609.7265,1597.28025 331.7138,-2.2851 640.503,-1601.74808 211.875,2.62207 -704.3408,1811.14751 -3985.3596,-10.1954 135.2961,350.1856 3740.039,-0.015 -89.9121,199.8633 -3549.6533,0.3223 111.2402,300.1611 3319.6436,9.4629 L 4040.0302,8190.08 h -240.0293 l 1914.082,-4970.0976 -353.9209,-0.2051 z m 200.7861,-2650.3858 903.8965,-2319.917 -1764.7998,0.6592 z"
       sodipodi:nodetypes="cccccccccccccccccccccccccccccccccccccccccccc"
       style="stroke-width:1.08109" />
  </g>
</svg>
