<?xml version="1.0" encoding="UTF-8" standalone="no"?>
<svg
   version="1.0"
   width="1003.2653"
   height="338.20462"
   viewBox="0 0 1254.0817 422.75578"
   preserveAspectRatio="xMidYMid"
   id="svg2"
   xmlns="http://www.w3.org/2000/svg"
   xmlns:svg="http://www.w3.org/2000/svg">
  <defs
     id="defs2">
    <rect
       x="223"
       y="361.25"
       width="252.62141"
       height="44.345333"
       id="rect45" />
  </defs>
  <metadata
     id="metadata1">
Created by potrace 1.16, written by Peter Selinger 2001-2019
</metadata>
  <g
     id="g6"
     transform="matrix(0.02712247,0,0,-0.04269642,-9.7225523,349.75928)"
     style="fill:#000000;fill-opacity:1;stroke:#000000;stroke-width:2.93859;stroke-opacity:0">
    <path
       id="path2"
       d="M 3348.5,7039.875 914.46875,340.51563 1135.1563,340 3453.5524,6689.9894 Z m 101.4032,1150.4248 -189.917,-0.2784 L 360.04969,340.11421 c 0.0423,-0.0988 205.26855,-0.13184 205.26855,-0.13184 L 3350.0595,7790.1191 5122.535,3220.1728 4800.1669,3219.1474 3649.9862,6139.9873 1499.2294,339.30855 l 249.5508,0.80566 566.4513,1599.45919 2741.5614,0.4871 643.2568,-1608.25195 190.1221,-0.11719 -590.4493,1608.50094 348.9258,-0.3662 598.6817,-1602.52439 232.6757,5.69824 -609.7265,1597.28025 331.7138,-2.2851 640.503,-1601.74808 211.875,2.62207 -704.3408,1811.14751 -3985.3596,-10.1954 135.2961,350.1856 3740.039,-0.015 -89.9121,199.8633 -3549.6533,0.3223 111.2402,300.1611 3319.6436,9.4629 L 4040.0302,8190.08 h -240.0293 l 1914.082,-4970.0976 -353.9209,-0.2051 z m 200.7861,-2650.3858 903.8965,-2319.917 -1764.7998,0.6592 z"
       style="fill:#000000;fill-opacity:1;stroke:#000000;stroke-width:2.93859;stroke-opacity:0" />
  </g>
  <text
     xml:space="preserve"
     transform="matrix(3.5101674,0,0,6.9804081,-601.04372,-2255.8874)"
     id="text45"
     style="font-style:normal;font-variant:normal;font-weight:normal;font-stretch:normal;font-size:37.7795px;line-height:normal;font-family:'DM Sans';-inkscape-font-specification:'DM Sans, @opsz=40.0';font-variant-ligatures:normal;font-variant-caps:normal;font-variant-numeric:normal;font-variant-east-asian:normal;font-variation-settings:'opsz' 40;letter-spacing:3.54183px;white-space:pre;shape-inside:url(#rect45);fill:#000000;fill-opacity:1;fill-rule:nonzero;stroke:#000000;stroke-width:0;stroke-dasharray:none;stroke-opacity:0;paint-order:markers stroke fill"><tspan
       x="223"
       y="371.14463"
       id="tspan2">TARAXIA LAB</tspan></text>
</svg>